<svg xmlns="http://www.w3.org/2000/svg" version="1.1" xmlns:xlink="http://www.w3.org/1999/xlink" viewBox="0 0 11.631284380365955 6.008383989740954"><g transform="matrix(0.8034364378202266,0,0,0.8034364378202266,1.7336580252490457,2.1350333116252256)"><g transform="matrix(1,0,0,1,0,0)" clip-path="url(#SvgjsClipPath61399)"><g clip-path="url(#SvgjsClipPath613974128fa5f-c61b-4c0a-9292-c521ea667946)"><path d=" M 7.89210620340769 3.2030137603952182 C 9.063619427458269 3.203013760395219 10.013318538909441 2.2533146489440448 10.013318538909441 1.0818014248934664 C 10.013318538909441 -0.08971179915711214 9.063619427458269 -1.0394109106082867 7.89210620340769 -1.0394109106082867 C 6.720592979357112 -1.0394109106082867 5.770893867905937 -0.08971179915711236 5.770893867905937 1.081801424893466 C 5.770893867905937 2.2533146489440448 6.720592979357112 3.203013760395219 7.89210620340769 3.203013760395219 Z M 7.89210620340769 3.3510072376761553 C 9.14535396803496 3.3510072376761553 10.16131201619038 2.3350491895207357 10.16131201619038 1.081801424893466 C 10.16131201619038 -0.17144633973380374 9.14535396803496 -1.1874043878892235 7.89210620340769 -1.1874043878892235 C 6.638858438780421 -1.1874043878892235 5.622900390625 -0.17144633973380397 5.622900390625 1.0818014248934655 C 5.622900390625 2.3350491895207357 6.638858438780421 3.3510072376761553 7.89210620340769 3.3510072376761553 Z" fill="#212121" transform="matrix(1,0,0,1,0,0)" fill-rule="evenodd"></path></g><g clip-path="url(#SvgjsClipPath613974128fa5f-c61b-4c0a-9292-c521ea667946)"><path d=" M 8.434735200675288 3.2857366268430246 C 8.245524263491811 3.2392691963540567 8.063130137032662 3.1684860742853598 7.892106203407691 3.075154327416791 C 7.721080308212342 3.1684424200722425 7.538684702893432 3.2391706429376956 7.34947720614009 3.2855715936930032 C 7.247267927481984 3.2604876177320623 7.146943096069531 3.2282684159990813 7.049240647965188 3.189150975793491 C 7.290352740335113 3.1618087536132995 7.524930109255348 3.0930239580617753 7.742627427776567 2.985830134968163 C 7.558802830536065 2.866330749228193 7.393166207515918 2.7209540420103417 7.2508286407153015 2.55418593108939 C 7.095366834262546 2.736356321300426 6.91217608052199 2.8928976030747737 6.707993352010176 3.0180528575096783 C 6.661233959504352 2.9893645949311036 6.615561035236163 2.9591085174273344 6.570974579205608 2.9272846249983697 C 6.794181987459222 2.800267239272719 6.992603380997813 2.6339656233018713 7.156677228628574 2.4363935202622145 C 6.55870349898572 1.6323211241434314 6.55870349898572 0.5312817256434987 7.156677228628573 -0.2727906704752848 C 6.99263787796834 -0.47028819131777455 6.794274363804343 -0.6365322469453522 6.57113961235563 -0.7635167420614162 C 6.61561604628617 -0.7953956455403882 6.661233959504353 -0.8257067340941645 6.7079933520101775 -0.8544500077227453 C 6.9121640532495965 -0.7293447979585395 7.095354124316713 -0.5728597931152372 7.250828640715301 -0.3907481144524799 C 7.393155999863543 -0.5575145677985403 7.558794473960981 -0.702879003833214 7.7426274277765685 -0.8223510600437469 C 7.52493936345125 -0.9295761909184628 7.290358864305846 -0.998375862481458 7.0492406479651875 -1.0257131591565807 C 7.146943096069532 -1.0648305993621705 7.247267927481984 -1.0970498010951513 7.349477206140092 -1.1221337770560924 C 7.538692616712689 -1.0756805318057858 7.721088536295358 -1.0048967138655527 7.892106203407691 -0.9115514776298586 C 8.063129748469025 -1.004844632454145 8.245526026890463 -1.0755731163310709 8.434735200675288 -1.121968743906072 C 8.53694890329864 -1.096917562071433 8.637275057809951 -1.0647117221733398 8.734971758850193 -1.0255893842940644 C 8.493861076703242 -0.9982910343330058 8.259280915244744 -0.9295333361689834 8.041584979038811 -0.8223510600437469 C 8.225430784793152 -0.7028798928445192 8.391083006213073 -0.5575155871424986 8.533425024387583 -0.3907481144524787 C 8.688886082051212 -0.5728574180841177 8.872062194489851 -0.7293423928255183 9.076219054805202 -0.8544500077227453 C 9.122978447311027 -0.825734239619168 9.168651371579218 -0.7954093983028901 9.213237827609772 -0.763475483773912 C 8.9900365965579 -0.6365352927286619 8.791613692367012 -0.4703022975509902 8.627535178186807 -0.27279067047528427 C 9.22556309243381 0.5312637853141216 9.22556309243381 1.63233906447281 8.627535178186807 2.4363935202622162 C 8.791564641584404 2.633889718146394 8.989930563448791 2.8001218143085396 9.213072794459752 2.9270783335608437 C 9.168596360529211 2.959012248089822 9.122978447311027 2.9893370894060993 9.076219054805202 3.0180528575096774 C 8.872053282030063 2.8929575084235166 8.688875358910824 2.736470986841187 8.533425024387583 2.5543509642394104 C 8.391070749384042 2.7211180722805466 8.225420690151813 2.8664943762556803 8.041584979038811 2.9859951681181824 C 8.25928229756003 3.093188991211796 8.493859666480265 3.161973786763321 8.73497175885019 3.1893160089435115 C 8.637269310745847 3.2284334491491036 8.536944479333396 3.2606526508820837 8.434735200675288 3.2857366268430246 Z M 6.85619312072864 1.081801424893466 C 6.855474815058762 0.6397710631275302 6.993506253415847 0.2086627317652725 7.250828640715267 -0.15074865603503107 C 7.5081334223102 0.2086715775866086 7.646162996914353 0.6397740879603118 7.645464160701964 1.081801424893466 C 7.64616299691438 1.523828761826494 7.5081334223102525 1.9549312722002055 7.250828640715375 2.31435150582191 C 6.993506253415871 1.9549401180217154 6.855474815058773 1.5238317866594617 6.856193120728639 1.0818014248934655 Z M 7.7934576379829 1.081801424893466 C 7.79423779654207 1.5699329140083667 7.63687742170136 2.045184116912476 7.344938794514552 2.4363935202621807 C 7.499444775956249 2.6224174554261284 7.684473910601681 2.780798599785573 7.892106203407689 2.9047576000205613 C 8.099746014164047 2.780809062305333 8.2847768083596 2.622426497405022 8.439273612300855 2.4363935202622145 C 7.84124569805385 1.63233906447281 7.84124569805385 0.5312637853141204 8.439273612300854 -0.2727906704752848 C 8.284776808359599 -0.45882364761809225 8.099746014164046 -0.617206212518403 7.892106203407689 -0.7411547502336321 C 7.684473910601682 -0.617195749998642 7.49944477595625 -0.45881460563919785 7.344938794514527 -0.2727906704752848 C 7.6368694233818175 0.11842290112400145 7.794228891143393 0.5936713645172542 7.7934576379829 1.0818014248934664 Z M 8.533425024387583 -0.15074865603508059 C 8.007185724800589 0.5866968700339668 8.007185724800589 1.5769059797529652 8.533425024387583 2.314351505822012 C 9.059601481186112 1.576885857829996 9.059601481186112 0.5867169919569346 8.533425024387583 -0.15074865603508103 Z" fill="#212121" transform="matrix(1,0,0,1,0,0)" fill-rule="evenodd"></path></g></g><g><path d=" M 0.10693359375 0.010986328125 L 0.296630859375 0.010986328125 L 0.296630859375 0.557373046875 L 0.302490234375 0.557373046875 L 0.519287109375 0.010986328125 L 0.708251953125 0.010986328125 L 0.466552734375 0.59765625 L 0.7353515625 1.261962890625 L 0.532470703125 1.261962890625 L 0.302490234375 0.66650390625 L 0.296630859375 0.66650390625 L 0.296630859375 1.261962890625 L 0.10693359375 1.261962890625 L 0.10693359375 0.010986328125 M 1.119873046875 1.27294921875 Q 1.08984375 1.27294921875 1.0546875 1.2681884765625 Q 1.01953125 1.263427734375 0.985107421875 1.248046875 Q 0.95068359375 1.232666015625 0.9188232421875 1.2044677734375 Q 0.886962890625 1.17626953125 0.8624267578125 1.130126953125 Q 0.837890625 1.083984375 0.8232421875 1.0162353515625 Q 0.80859375 0.948486328125 0.80859375 0.854736328125 L 0.80859375 0.41162109375 Q 0.80859375 0.317138671875 0.8236083984375 0.2501220703125 Q 0.838623046875 0.18310546875 0.863525390625 0.1373291015625 Q 0.888427734375 0.091552734375 0.9202880859375 0.064453125 Q 0.9521484375 0.037353515625 0.9869384765625 0.0230712890625 Q 1.021728515625 0.0087890625 1.05615234375 0.00439453125 Q 1.090576171875 0 1.119873046875 0 Q 1.147705078125 0 1.1817626953125 0.0040283203125 Q 1.2158203125 0.008056640625 1.2498779296875 0.0216064453125 Q 1.283935546875 0.03515625 1.316162109375 0.0618896484375 Q 1.348388671875 0.088623046875 1.373291015625 0.1343994140625 Q 1.398193359375 0.18017578125 1.4132080078125 0.2479248046875 Q 1.42822265625 0.315673828125 1.42822265625 0.41162109375 L 1.42822265625 0.854736328125 Q 1.42822265625 0.94775390625 1.412841796875 1.0147705078125 Q 1.3974609375 1.081787109375 1.37255859375 1.1282958984375 Q 1.34765625 1.1748046875 1.3150634765625 1.2030029296875 Q 1.282470703125 1.231201171875 1.2484130859375 1.2469482421875 Q 1.21435546875 1.2626953125 1.1806640625 1.267822265625 Q 1.14697265625 1.27294921875 1.119873046875 1.27294921875 M 1.119873046875 1.130126953125 Q 1.147705078125 1.130126953125 1.1685791015625 1.12060546875 Q 1.189453125 1.111083984375 1.2030029296875 1.087646484375 Q 1.216552734375 1.064208984375 1.2235107421875 1.0257568359375 Q 1.23046875 0.9873046875 1.23046875 0.9287109375 L 1.23046875 0.359619140625 Q 1.23046875 0.299560546875 1.2235107421875 0.25927734375 Q 1.216552734375 0.218994140625 1.2030029296875 0.1944580078125 Q 1.189453125 0.169921875 1.1685791015625 0.15966796875 Q 1.147705078125 0.1494140625 1.119873046875 0.1494140625 Q 1.09130859375 0.1494140625 1.070068359375 0.15966796875 Q 1.048828125 0.169921875 1.034912109375 0.1944580078125 Q 1.02099609375 0.218994140625 1.0140380859375 0.25927734375 Q 1.007080078125 0.299560546875 1.007080078125 0.359619140625 L 1.007080078125 0.9287109375 Q 1.007080078125 0.9873046875 1.0140380859375 1.0257568359375 Q 1.02099609375 1.064208984375 1.034912109375 1.087646484375 Q 1.048828125 1.111083984375 1.070068359375 1.12060546875 Q 1.09130859375 1.130126953125 1.119873046875 1.130126953125 M 1.607666015625 0.010986328125 L 1.761474609375 0.010986328125 L 2.064697265625 0.84814453125 L 2.069091796875 0.84814453125 Q 2.06689453125 0.81884765625 2.063232421875 0.782958984375 Q 2.0595703125 0.7470703125 2.056640625 0.7012939453125 Q 2.0537109375 0.655517578125 2.051513671875 0.59765625 Q 2.04931640625 0.539794921875 2.04931640625 0.46728515625 L 2.04931640625 0.010986328125 L 2.21923828125 0.010986328125 L 2.21923828125 1.261962890625 L 2.06396484375 1.261962890625 L 1.76220703125 0.44677734375 L 1.75634765625 0.44677734375 Q 1.758544921875 0.479736328125 1.76220703125 0.5181884765625 Q 1.765869140625 0.556640625 1.768798828125 0.608642578125 Q 1.771728515625 0.66064453125 1.77392578125 0.7298583984375 Q 1.776123046875 0.799072265625 1.776123046875 0.894287109375 L 1.776123046875 1.261962890625 L 1.607666015625 1.261962890625 L 1.607666015625 0.010986328125 M 2.685791015625 1.273681640625 Q 2.663818359375 1.273681640625 2.634521484375 1.2689208984375 Q 2.605224609375 1.26416015625 2.5740966796875 1.248779296875 Q 2.54296875 1.2333984375 2.512939453125 1.2052001953125 Q 2.48291015625 1.177001953125 2.4591064453125 1.1304931640625 Q 2.435302734375 1.083984375 2.420654296875 1.0162353515625 Q 2.406005859375 0.948486328125 2.406005859375 0.854736328125 L 2.406005859375 0.41162109375 Q 2.406005859375 0.317138671875 2.42138671875 0.2501220703125 Q 2.436767578125 0.18310546875 2.46240234375 0.1373291015625 Q 2.488037109375 0.091552734375 2.5213623046875 0.064453125 Q 2.5546875 0.037353515625 2.590576171875 0.0230712890625 Q 2.62646484375 0.0087890625 2.66162109375 0.00439453125 Q 2.69677734375 0 2.726806640625 0 Q 2.802978515625 0 2.8553466796875 0.0208740234375 Q 2.90771484375 0.041748046875 2.9403076171875 0.0780029296875 Q 2.972900390625 0.1142578125 2.9871826171875 0.16259765625 Q 3.00146484375 0.2109375 3.00146484375 0.26513671875 Q 3.00146484375 0.305419921875 2.9967041015625 0.3394775390625 Q 2.991943359375 0.37353515625 2.98388671875 0.41455078125 L 2.832275390625 0.41455078125 L 2.832275390625 0.355224609375 Q 2.832275390625 0.1494140625 2.7216796875 0.1494140625 Q 2.691650390625 0.1494140625 2.669677734375 0.15966796875 Q 2.647705078125 0.169921875 2.633056640625 0.1944580078125 Q 2.618408203125 0.218994140625 2.6114501953125 0.25927734375 Q 2.6044921875 0.299560546875 2.6044921875 0.359619140625 L 2.6044921875 0.926513671875 Q 2.6044921875 0.985107421875 2.6114501953125 1.02392578125 Q 2.618408203125 1.062744140625 2.6326904296875 1.086181640625 Q 2.64697265625 1.109619140625 2.6685791015625 1.1195068359375 Q 2.690185546875 1.12939453125 2.72021484375 1.12939453125 Q 2.751708984375 1.12939453125 2.7744140625 1.1129150390625 Q 2.797119140625 1.096435546875 2.811767578125 1.06787109375 Q 2.826416015625 1.039306640625 2.8333740234375 1.00048828125 Q 2.84033203125 0.961669921875 2.84033203125 0.916259765625 L 2.84033203125 0.7529296875 L 2.742919921875 0.7529296875 L 2.742919921875 0.62841796875 L 3.02490234375 0.62841796875 L 3.02490234375 1.261962890625 L 2.89892578125 1.261962890625 L 2.87841796875 1.143310546875 Q 2.842529296875 1.212890625 2.7960205078125 1.2432861328125 Q 2.74951171875 1.273681640625 2.685791015625 1.273681640625 M 3.199951171875 0.010986328125 L 3.3896484375 0.010986328125 Q 3.425537109375 0.010986328125 3.4683837890625 0.0142822265625 Q 3.51123046875 0.017578125 3.5540771484375 0.0296630859375 Q 3.596923828125 0.041748046875 3.6368408203125 0.066650390625 Q 3.6767578125 0.091552734375 3.70751953125 0.1343994140625 Q 3.73828125 0.17724609375 3.7569580078125 0.24169921875 Q 3.775634765625 0.30615234375 3.775634765625 0.3984375 L 3.775634765625 0.4423828125 Q 3.775634765625 0.542724609375 3.7584228515625 0.6141357421875 Q 3.7412109375 0.685546875 3.712646484375 0.7342529296875 Q 3.68408203125 0.782958984375 3.6463623046875 0.812255859375 Q 3.608642578125 0.841552734375 3.5679931640625 0.8565673828125 Q 3.52734375 0.87158203125 3.4859619140625 0.8763427734375 Q 3.444580078125 0.881103515625 3.407958984375 0.881103515625 L 3.3896484375 0.881103515625 L 3.3896484375 1.261962890625 L 3.199951171875 1.261962890625 L 3.199951171875 0.010986328125 M 3.399169921875 0.741943359375 Q 3.450439453125 0.741943359375 3.485595703125 0.7269287109375 Q 3.520751953125 0.7119140625 3.5416259765625 0.6800537109375 Q 3.5625 0.648193359375 3.5716552734375 0.5980224609375 Q 3.580810546875 0.5478515625 3.580810546875 0.4775390625 L 3.580810546875 0.36474609375 Q 3.580810546875 0.30908203125 3.57275390625 0.2684326171875 Q 3.564697265625 0.227783203125 3.5438232421875 0.201416015625 Q 3.52294921875 0.175048828125 3.48779296875 0.1622314453125 Q 3.45263671875 0.1494140625 3.399169921875 0.1494140625 L 3.3896484375 0.1494140625 L 3.3896484375 0.741943359375 L 3.399169921875 0.741943359375 M 4.056884765625 0.010986328125 L 4.275146484375 0.010986328125 L 4.506591796875 1.261962890625 L 4.314697265625 1.261962890625 L 4.2802734375 1.037841796875 L 4.0517578125 1.037841796875 L 4.018798828125 1.261962890625 L 3.826171875 1.261962890625 L 4.056884765625 0.010986328125 M 4.25830078125 0.89501953125 L 4.17041015625 0.271728515625 L 4.162353515625 0.271728515625 L 4.07373046875 0.89501953125 L 4.25830078125 0.89501953125 M 4.776123046875 0.84521484375 L 4.524169921875 0.010986328125 L 4.71533203125 0.010986328125 L 4.868408203125 0.609375 L 4.877197265625 0.609375 L 5.02880859375 0.010986328125 L 5.21923828125 0.010986328125 L 4.9658203125 0.84521484375 L 4.9658203125 1.261962890625 L 4.776123046875 1.261962890625 L 4.776123046875 0.84521484375" fill="#212121" fill-rule="nonzero"></path></g><g><path d=" M 1.1359863281250004 1.9808303000710228 L 1.136652166193182 2.0990165571732957 Q 1.136652166193182 2.114996670809659 1.136652166193182 2.1263159179687503 Q 1.1369850852272732 2.1313097034801136 1.1369850852272732 2.1349718128551136 Q 1.220880681818182 2.1349718128551136 1.2485129616477277 2.1323084605823865 Q 1.2771439985795459 2.129312189275568 1.2818048650568186 2.130643865411932 Q 1.2864657315340913 2.1319755415482957 1.2897949218750004 2.1349718128551136 Q 1.2964533025568186 2.1409643554687503 1.2964533025568186 2.148122114701705 Q 1.2964533025568186 2.155279873934659 1.2901278409090913 2.160440118963068 Q 1.283802379261364 2.1656003639914774 1.2724831321022732 2.1649345259232957 Q 1.217884410511364 2.1606065784801136 1.173939098011364 2.1634363902698865 Q 1.129993785511364 2.166266202059659 1.1246670809659094 2.1670984996448865 Q 1.119340376420455 2.1679307972301136 1.1151788884943186 2.1670984996448865 Q 1.1110174005681823 2.166266202059659 1.1076882102272732 2.163602849786932 Q 1.1000310724431823 2.1579432262073865 1.100696910511364 2.1469568980823865 Q 1.1056906960227277 2.0507432972301136 1.1056906960227277 1.93405517578125 Q 1.1056906960227277 1.8173670543323865 1.1058571555397732 1.7872378817471593 Q 1.1060236150568186 1.757108709161932 1.1060236150568186 1.7321397816051138 Q 1.1053577769886367 1.6785398171164774 1.1036931818181823 1.656400701349432 Q 1.1020285866477277 1.6342615855823865 1.1045254794034094 1.6299336381392049 Q 1.1070223721590913 1.6256056906960228 1.1106844815340913 1.6236081764914774 Q 1.115678267045455 1.6212777432528411 1.1233354048295459 1.6226094193892049 Q 1.137318004261364 1.6249398526278411 1.1602894176136367 1.6249398526278411 Q 1.2045676491477277 1.6249398526278411 1.2207142223011367 1.6231087979403411 Q 1.2368607954545459 1.6212777432528411 1.2415216619318186 1.6227758789062503 Q 1.2461825284090913 1.6242740145596593 1.2491787997159094 1.6269373668323865 Q 1.2558371803977277 1.6322640713778411 1.2558371803977277 1.639921209161932 Q 1.2558371803977277 1.6475783469460228 1.2498446377840913 1.6525721324573865 Q 1.243852095170455 1.6575659179687503 1.2335316051136367 1.6570665394176138 Q 1.2232111150568186 1.6565671608664774 1.2115589488636367 1.6557348632812503 Q 1.199906782670455 1.6549025656960228 1.1865900213068186 1.6542367276278411 Q 1.158624822443182 1.6532379705255682 1.1379838423295459 1.6549025656960228 Q 1.1379838423295459 1.683866521661932 1.137650923295455 1.7124975585937503 Q 1.137318004261364 1.7464553000710228 1.1369850852272732 1.7814117986505684 Q 1.1359863281250004 1.8752949662642047 1.1359863281250004 1.9199061168323865 Q 1.177601207386364 1.9199061168323865 1.1972434303977277 1.9179086026278411 Q 1.2185502485795459 1.9155781693892047 1.2240434126420459 1.9199061168323865 Q 1.2295365767045459 1.9242340642755684 1.2295365767045459 1.9315582830255684 Q 1.2295365767045459 1.9498688299005684 1.195245916193182 1.9492029918323865 Q 1.1882546164772732 1.9488700727982957 1.1825949928977277 1.9488700727982957 L 1.155628551136364 1.9485371537642047 L 1.1359863281250004 1.9485371537642047 L 1.1359863281250004 1.9808303000710228 M 1.4567538174715913 1.6239410955255682 Q 1.4647438742897732 1.6239410955255682 1.4714022549715913 1.6305994762073865 Q 1.4780606356534096 1.6372578568892049 1.481889204545455 1.6583982155539774 Q 1.4857177734375004 1.6795385742187503 1.4935413707386367 1.7188230202414774 Q 1.5013649680397732 1.7581074662642047 1.5110196200284096 1.8027186168323865 Q 1.5206742720170459 1.8473297674005684 1.531327681107955 1.8947707297585228 Q 1.541981090198864 1.9422116921164774 1.5526344992897732 1.9868228426846593 Q 1.5782692649147732 2.091359419389205 1.592584783380682 2.1396326793323865 Q 1.5959139737215913 2.1519506835937503 1.590753728693182 2.1592749023437503 Q 1.5855934836647732 2.1665991210937503 1.5792680220170459 2.1665991210937503 Q 1.5729425603693186 2.1665991210937503 1.5677823153409096 2.1629370117187503 Q 1.5626220703125004 2.1592749023437503 1.5586270419034096 2.141297274502841 Q 1.5546320134943186 2.123319646661932 1.545643199573864 2.083036443536932 Q 1.5366543856534096 2.042753240411932 1.5263338955965913 1.9964774946732957 Q 1.5260009765625004 1.99447998046875 1.5256680575284096 1.9928153852982957 Q 1.5030295632102277 1.9918166281960228 1.461747602982955 1.9918166281960228 Q 1.4131414240056823 1.9918166281960228 1.3875066583806823 1.9931483043323865 Q 1.3871737393465913 1.995145818536932 1.3868408203125004 1.9971433327414774 Q 1.366532759232955 2.095021528764205 1.3568781072443186 2.148621493252841 Q 1.3535489169034096 2.1656003639914774 1.3392333984375004 2.1656003639914774 Q 1.3242520419034096 2.1656003639914774 1.3209228515625004 2.1509519264914774 Q 1.3199240944602277 2.1466239790482957 1.3229203657670459 2.1373022460937503 Q 1.325916637073864 2.127980513139205 1.331742720170455 2.1051755593039774 Q 1.3375688032670459 2.0823706054687503 1.3443936434659096 2.052907270951705 Q 1.3512184836647732 2.023443936434659 1.358875621448864 1.9884874378551138 Q 1.366532759232955 1.9535309392755684 1.3745228160511367 1.9165769264914774 Q 1.3825128728693186 1.8796229137073865 1.3905029296875004 1.8421695223721593 Q 1.3984929865056823 1.804716131036932 1.4058172052556823 1.7697596324573865 Q 1.4131414240056823 1.7348031338778411 1.419633345170455 1.7041745827414774 Q 1.4261252663352277 1.6735460316051138 1.4301202947443186 1.6555684037642049 Q 1.4364457563920459 1.6239410955255682 1.4567538174715913 1.6239410955255682 M 1.3938321200284096 1.962186834161932 Q 1.4191339666193186 1.9635185102982957 1.4620805220170459 1.9635185102982957 Q 1.4977028586647732 1.9635185102982957 1.5190096768465913 1.9625197531960228 Q 1.5120183771306823 1.93222412109375 1.5050270774147732 1.9002638938210228 Q 1.4940407492897732 1.8506589577414774 1.4840531782670459 1.8040502929687503 Q 1.4674072265625004 1.727811834161932 1.4554221413352277 1.6702168412642047 Q 1.4477650035511367 1.7085025301846593 1.4334494850852277 1.7744204989346593 Q 1.4148060191761367 1.8623111239346593 1.4051513671875004 1.9082539506392047 Q 1.399491743607955 1.93588623046875 1.3938321200284096 1.962186834161932 M 1.6600008877840913 2.010793013139205 Q 1.6716530539772732 2.010793013139205 1.6746493252840913 2.019781827059659 Q 1.6776455965909096 2.0287706409801136 1.6776455965909096 2.0494116210937503 Q 1.6776455965909096 2.0700526012073865 1.683305220170455 2.0880302290482957 Q 1.6889648437500004 2.106007856889205 1.6989524147727277 2.118325861150568 Q 1.7192604758522732 2.1429618696732957 1.7552157315340913 2.1429618696732957 Q 1.7911709872159096 2.1429618696732957 1.8124778053977277 2.116494806463068 Q 1.8337846235795459 2.090027743252841 1.8337846235795459 2.0404228071732957 Q 1.8337846235795459 1.9741719193892047 1.7775213068181823 1.9225694691051138 Q 1.7615411931818186 1.9079210316051138 1.7447287819602277 1.8936055131392047 Q 1.727916370738637 1.8792899946732957 1.7119362571022732 1.8639757191051138 Q 1.6959561434659096 1.848661443536932 1.683305220170455 1.8300179776278411 Q 1.6556729403409096 1.7890689364346593 1.6556729403409096 1.7368006480823865 Q 1.6556729403409096 1.6832006835937503 1.6873002485795459 1.6502416992187503 Q 1.7185946377840913 1.6176156338778411 1.7658691406250004 1.6176156338778411 Q 1.8064852627840913 1.6176156338778411 1.8324529474431823 1.6449149946732957 Q 1.8614169034090913 1.6762093838778411 1.859086470170455 1.731473943536932 Q 1.8587535511363642 1.7341372958096593 1.8589200106534096 1.7371335671164774 Q 1.859086470170455 1.7401298384232957 1.8582541725852277 1.7484528142755684 Q 1.8574218750000004 1.7567757901278411 1.8512628728693186 1.7632677112926138 Q 1.8451038707386367 1.7697596324573865 1.8379461115056823 1.7697596324573865 Q 1.8307883522727277 1.7697596324573865 1.8257945667613642 1.7632677112926138 Q 1.8208007812500004 1.7567757901278411 1.822465376420455 1.746122381036932 Q 1.826793323863637 1.7218192915482957 1.826793323863637 1.7093348277698865 Q 1.826793323863637 1.6968503639914774 1.8222989169034096 1.6855311168323865 Q 1.8178045099431823 1.6742118696732957 1.8094815340909096 1.665555974786932 Q 1.7915039062500004 1.647245427911932 1.7628728693181823 1.647245427911932 Q 1.7312455610795459 1.647245427911932 1.7112704190340913 1.6688851651278411 Q 1.6892977627840913 1.6928553355823865 1.6892977627840913 1.727811834161932 Q 1.6892977627840913 1.7627683327414774 1.6969549005681823 1.7842416104403411 Q 1.7046120383522732 1.8057148881392047 1.7170965021306823 1.823026677911932 Q 1.7295809659090913 1.8403384676846593 1.745561079545455 1.8546539861505684 Q 1.7615411931818186 1.8689695046164774 1.7780206853693186 1.8829521040482957 Q 1.7945001775568186 1.8969347034801138 1.8104802911931823 1.9117496004971593 Q 1.8264604048295459 1.9265644975142047 1.8391113281250004 1.9445421253551138 Q 1.8667436079545459 1.9851582475142047 1.8667436079545459 2.038092373934659 Q 1.8667436079545459 2.100015314275568 1.8347833806818186 2.136969327059659 Q 1.8031560724431823 2.173590420809659 1.7502219460227277 2.173590420809659 Q 1.7009499289772732 2.173590420809659 1.6699884588068186 2.1356376509232957 Q 1.6406915838068186 2.100015314275568 1.6406915838068186 2.0554041637073865 Q 1.6406915838068186 2.010793013139205 1.6600008877840913 2.010793013139205 M 2.084639115767046 2.0457495117187503 L 2.0869695490056825 2.142628950639205 Q 2.0869695490056825 2.1576103071732957 2.0726540305397734 2.1629370117187503 Q 2.0689919211647734 2.1642686878551136 2.0639981356534096 2.1642686878551136 Q 2.059004350142046 2.1642686878551136 2.0533447265625004 2.1587755237926136 Q 2.047685102982955 2.1532823597301136 2.048683860085228 2.1414637340198865 Q 2.0496826171875004 2.129645108309659 2.051014293323864 2.1179929421164774 Q 2.052345969460228 2.1063407759232957 2.0533447265625004 2.094355690696023 Q 2.0556751598011367 2.0663904918323865 2.0556751598011367 2.0507432972301136 Q 2.0556751598011367 2.035096102627841 2.055342240767046 2.0237768554687503 Q 2.055009321732955 2.012457608309659 2.0543434836647734 2.0004725230823865 Q 2.0540105646306825 1.99081787109375 2.0533447265625004 1.9788327858664774 Q 2.0423583984375004 1.9508675870028411 2.029041637073864 1.9192402787642047 Q 2.012062766335228 1.877958318536932 1.9937522194602277 1.8333471679687503 Q 1.9185125177556823 1.6522392134232957 1.9185125177556823 1.6372578568892049 Q 1.9185125177556823 1.628934881036932 1.9235063032670459 1.6239410955255682 Q 1.9285000887784096 1.6189473100142049 1.9363236860795459 1.6186143909801138 Q 1.9441472833806823 1.6182814719460228 1.9484752308238642 1.6237746360085228 Q 1.9528031782670459 1.6292678000710228 1.9612926136363642 1.6585646750710228 Q 1.9697820490056823 1.6878615500710228 1.9864280007102277 1.7339708362926138 Q 2.0030739524147734 1.7800801225142047 2.0200528231534096 1.8220279208096593 Q 2.0423583984375004 1.8776253995028411 2.0703235973011367 1.940214177911932 Q 2.0753173828125004 1.9265644975142047 2.080977006392046 1.9112502219460228 Q 2.0906316583806825 1.8862812943892047 2.100785688920455 1.8588154740767047 Q 2.110939719460228 1.8313496537642047 2.1214266690340913 1.8025521573153411 Q 2.131913618607955 1.7737546608664774 2.1415682705965913 1.746122381036932 Q 2.164872602982955 1.6785398171164774 2.1711980646306825 1.6560677823153411 Q 2.1775235262784096 1.6335957475142049 2.1818514737215913 1.6251063121448865 Q 2.1861794211647734 1.6166168767755682 2.1948353160511367 1.6166168767755682 Q 2.2108154296875004 1.6166168767755682 2.2108154296875004 1.6322640713778411 Q 2.2108154296875004 1.6442491566051138 2.1870117187500004 1.7061720969460228 Q 2.1632080078125004 1.768095037286932 2.1563831676136367 1.7875708007812503 Q 2.1495583274147734 1.8070465642755684 2.143232865767046 1.8241918945312503 Q 2.136907404119319 1.841337224786932 2.129583185369319 1.86081298828125 Q 2.122258966619319 1.8802887517755684 2.114435369318182 1.9007632723721593 Q 2.106611772017046 1.92123779296875 2.0996204723011367 1.9398812588778411 Q 2.091630415482955 1.9598564009232957 2.0863037109375004 1.9735060813210228 Q 2.084639115767046 2.032765669389205 2.084639115767046 2.0457495117187503 M 2.500787908380682 1.6239410955255682 Q 2.5087779651988638 1.6239410955255682 2.515436345880682 1.6305994762073865 Q 2.5220947265625 1.6372578568892049 2.5259232954545454 1.6583982155539774 Q 2.529751864346591 1.6795385742187503 2.5375754616477275 1.7188230202414774 Q 2.5453990589488638 1.7581074662642047 2.5550537109375 1.8027186168323865 Q 2.5647083629261367 1.8473297674005684 2.5753617720170454 1.8947707297585228 Q 2.5860151811079546 1.9422116921164774 2.5966685901988638 1.9868228426846593 Q 2.6223033558238638 2.091359419389205 2.636618874289773 2.1396326793323865 Q 2.639948064630682 2.1519506835937503 2.634787819602273 2.1592749023437503 Q 2.6296275745738638 2.1665991210937503 2.6233021129261367 2.1665991210937503 Q 2.616976651278409 2.1665991210937503 2.61181640625 2.1629370117187503 Q 2.606656161221591 2.1592749023437503 2.6026611328125 2.141297274502841 Q 2.598666104403409 2.123319646661932 2.5896772904829546 2.083036443536932 Q 2.5806884765625 2.042753240411932 2.570367986505682 1.9964774946732957 Q 2.570035067471591 1.99447998046875 2.5697021484375 1.9928153852982957 Q 2.5470636541193183 1.9918166281960228 2.5057816938920454 1.9918166281960228 Q 2.457175514914773 1.9918166281960228 2.431540749289773 1.9931483043323865 Q 2.431207830255682 1.995145818536932 2.430874911221591 1.9971433327414774 Q 2.4105668501420454 2.095021528764205 2.400912198153409 2.148621493252841 Q 2.3975830078125 2.1656003639914774 2.383267489346591 2.1656003639914774 Q 2.3682861328125 2.1656003639914774 2.364956942471591 2.1509519264914774 Q 2.3639581853693183 2.1466239790482957 2.3669544566761367 2.1373022460937503 Q 2.3699507279829546 2.127980513139205 2.3757768110795454 2.1051755593039774 Q 2.3816028941761367 2.0823706054687503 2.388427734375 2.052907270951705 Q 2.3952525745738638 2.023443936434659 2.4029097123579546 1.9884874378551138 Q 2.4105668501420454 1.9535309392755684 2.4185569069602275 1.9165769264914774 Q 2.426546963778409 1.8796229137073865 2.434537020596591 1.8421695223721593 Q 2.442527077414773 1.804716131036932 2.449851296164773 1.7697596324573865 Q 2.457175514914773 1.7348031338778411 2.4636674360795454 1.7041745827414774 Q 2.4701593572443183 1.6735460316051138 2.474154385653409 1.6555684037642049 Q 2.4804798473011367 1.6239410955255682 2.500787908380682 1.6239410955255682 M 2.4378662109375 1.962186834161932 Q 2.463168057528409 1.9635185102982957 2.5061146129261367 1.9635185102982957 Q 2.5417369495738638 1.9635185102982957 2.563043767755682 1.9625197531960228 Q 2.556052468039773 1.93222412109375 2.5490611683238638 1.9002638938210228 Q 2.5380748401988638 1.8506589577414774 2.5280872691761367 1.8040502929687503 Q 2.511441317471591 1.727811834161932 2.4994562322443183 1.6702168412642047 Q 2.4917990944602275 1.7085025301846593 2.4774835759943183 1.7744204989346593 Q 2.4588401100852275 1.8623111239346593 2.449185458096591 1.9082539506392047 Q 2.4435258345170454 1.93588623046875 2.4378662109375 1.962186834161932 M 2.964377663352273 1.6419187233664774 Q 2.9623801491477275 1.8077124023437503 2.9623801491477275 1.8764601828835228 Q 2.9623801491477275 1.9452079634232957 2.962546608664773 1.9773346502130684 Q 2.9627130681818183 2.009461337002841 2.963045987215909 2.0384252929687503 Q 2.963711825284091 2.0996823952414774 2.9645441228693183 2.1221544300426136 Q 2.9653764204545454 2.1446264648437503 2.96337890625 2.148954412286932 Q 2.9613813920454546 2.1532823597301136 2.9580522017045454 2.156278631036932 Q 2.9444025213068183 2.1685966352982957 2.9290882457386367 2.158609064275568 Q 2.923095703125 2.1546140358664774 2.920432350852273 2.1466239790482957 Q 2.891135475852273 2.060730868252841 2.849853515625 1.9600228604403411 Q 2.8085715553977275 1.8593148526278411 2.792258522727273 1.8176999733664774 Q 2.762628728693182 1.7421273526278411 2.740656072443182 1.6792056551846593 L 2.7449840198863638 2.1436277077414774 Q 2.7449840198863638 2.1539481977982957 2.739657315340909 2.158941983309659 Q 2.7343306107954546 2.163935768821023 2.7275057705965913 2.163935768821023 Q 2.7206809303977275 2.163935768821023 2.7148548473011367 2.158442604758523 Q 2.7090287642045454 2.152949440696023 2.7093616832386367 2.141963112571023 Q 2.7126908735795454 2.050410378196023 2.7126908735795454 1.9332228781960228 L 2.7126908735795454 1.7358018909801138 Q 2.7126908735795454 1.6841994406960228 2.7120250355113638 1.6469125088778411 Q 2.7120250355113638 1.6345945046164774 2.719515713778409 1.6281025834517049 Q 2.7270063920454546 1.621610662286932 2.7353293678977275 1.621610662286932 Q 2.7539728338068183 1.621610662286932 2.7599653764204546 1.6392553710937503 Q 2.7659579190340913 1.6569000799005682 2.7769442471590913 1.6866963334517047 Q 2.787930575284091 1.7164925870028411 2.8015802556818183 1.7529472212357957 Q 2.8152299360795454 1.7894018554687503 2.8308771306818183 1.8301844371448865 Q 2.846524325284091 1.8709670188210228 2.8621715198863638 1.9114166814630684 Q 2.8778187144886367 1.9518663441051138 2.8924671519886367 1.9898191139914774 Q 2.9071155894886367 2.027771883877841 2.919100674715909 2.0587333540482957 Q 2.931085759943182 2.0896948242187503 2.9394087357954546 2.1116674804687503 Q 2.9397416548295454 2.112666237571023 2.9400745738636367 2.113332075639205 Q 2.937411221590909 2.0480799449573865 2.9357466264204546 1.9711756480823865 Q 2.93408203125 1.8776253995028411 2.932916814630682 1.8310167347301138 Q 2.9317515980113638 1.7844080699573865 2.9305863813920454 1.7366341885653411 Q 2.9294211647727275 1.6888603071732957 2.927756569602273 1.6419187233664774 Q 2.927756569602273 1.6312653142755682 2.9335826526988638 1.6261050692471593 Q 2.9394087357954546 1.6209448242187503 2.9464000355113638 1.6209448242187503 Q 2.953391335227273 1.6209448242187503 2.958884499289773 1.6261050692471593 Q 2.964377663352273 1.6312653142755682 2.964377663352273 1.6419187233664774 M 3.303122780539773 1.7501174094460228 Q 3.3137761896306817 1.7907335316051138 3.3137761896306817 1.8398390891335228 Q 3.3137761896306817 1.888944646661932 3.305453213778409 1.931058904474432 Q 3.2971302379261362 1.973173162286932 3.2821488813920454 2.008961958451705 Q 3.2671675248579546 2.0447507546164774 3.246360085227273 2.073548251065341 Q 3.225552645596591 2.102345747514205 3.2002507990056817 2.1226538085937503 Q 3.147982510653409 2.164601606889205 3.086725408380682 2.164601606889205 Q 3.0770707563920454 2.164601606889205 3.074240944602273 2.158442604758523 Q 3.0714111328125 2.152283602627841 3.0714111328125 2.1436277077414774 L 3.0714111328125 2.114996670809659 Q 3.0714111328125 2.094355690696023 3.0712446732954546 2.0648923561789774 Q 3.071078213778409 2.035429021661932 3.0709117542613638 1.9993073064630684 Q 3.0707452947443183 1.9631855912642047 3.070245916193182 1.9244005237926138 Q 3.0697465376420454 1.8856154563210228 3.069247159090909 1.8461645507812503 Q 3.068747780539773 1.8067136452414774 3.068081942471591 1.7707583895596593 Q 3.0660844282670454 1.6961845259232957 3.0634210759943183 1.6532379705255682 Q 3.0617564808238638 1.6305994762073865 3.083396218039773 1.6279361239346593 Q 3.1153564453125 1.6232752574573865 3.1359974254261362 1.6232752574573865 Q 3.2698308771306817 1.6232752574573865 3.303122780539773 1.7501174094460228 M 3.104703036221591 2.133307217684659 Q 3.1423228870738638 2.1319755415482957 3.1796098188920454 2.101014071377841 Q 3.2488569779829546 2.0434190784801136 3.2721613103693183 1.929227849786932 Q 3.2801513671875 1.8899434037642047 3.2801513671875 1.8401720081676138 Q 3.2801513671875 1.7904006125710228 3.2679998224431817 1.7536130593039774 Q 3.2558482776988638 1.716825506036932 3.236538973721591 1.694852849786932 Q 3.2002507990056817 1.6535708895596593 3.1429887251420454 1.6535708895596593 Q 3.1180197975852275 1.6535708895596593 3.1023726029829546 1.6588975941051138 Q 3.0997092507102275 1.6931882546164774 3.0997092507102275 1.7551111949573865 Q 3.0997092507102275 1.8293521395596593 3.1000421697443183 1.8686365855823865 Q 3.100375088778409 1.9079210316051138 3.1008744673295454 1.9455408824573865 Q 3.101373845880682 1.9831607333096593 3.1018732244318183 2.017617853338068 Q 3.1023726029829546 2.0520749733664774 3.1030384410511362 2.079374334161932 Q 3.104037198153409 2.1136649946732957 3.104703036221591 2.133307217684659 M 3.5091996626420454 2.010793013139205 Q 3.520851828835227 2.010793013139205 3.5238481001420454 2.019781827059659 Q 3.5268443714488633 2.0287706409801136 3.5268443714488633 2.0494116210937503 Q 3.5268443714488633 2.0700526012073865 3.5325039950284087 2.0880302290482957 Q 3.5381636186079546 2.106007856889205 3.5481511896306817 2.118325861150568 Q 3.568459250710227 2.1429618696732957 3.6044145063920454 2.1429618696732957 Q 3.6403697620738633 2.1429618696732957 3.6616765802556817 2.116494806463068 Q 3.6829833984375 2.090027743252841 3.6829833984375 2.0404228071732957 Q 3.6829833984375 1.9741719193892047 3.6267200816761362 1.9225694691051138 Q 3.6107399680397725 1.9079210316051138 3.5939275568181817 1.8936055131392047 Q 3.577115145596591 1.8792899946732957 3.561135031960227 1.8639757191051138 Q 3.5451549183238633 1.848661443536932 3.5325039950284087 1.8300179776278411 Q 3.5048717151988633 1.7890689364346593 3.5048717151988633 1.7368006480823865 Q 3.5048717151988633 1.6832006835937503 3.5364990234375 1.6502416992187503 Q 3.5677934126420454 1.6176156338778411 3.615067915482954 1.6176156338778411 Q 3.6556840376420454 1.6176156338778411 3.6816517223011362 1.6449149946732957 Q 3.7106156782670454 1.6762093838778411 3.7082852450284087 1.731473943536932 Q 3.707952325994318 1.7341372958096593 3.7081187855113633 1.7371335671164774 Q 3.7082852450284087 1.7401298384232957 3.7074529474431817 1.7484528142755684 Q 3.706620649857954 1.7567757901278411 3.7004616477272725 1.7632677112926138 Q 3.694302645596591 1.7697596324573865 3.6871448863636362 1.7697596324573865 Q 3.6799871271306817 1.7697596324573865 3.674993341619318 1.7632677112926138 Q 3.669999556107954 1.7567757901278411 3.6716641512784087 1.746122381036932 Q 3.675992098721591 1.7218192915482957 3.675992098721591 1.7093348277698865 Q 3.675992098721591 1.6968503639914774 3.6714976917613633 1.6855311168323865 Q 3.6670032848011362 1.6742118696732957 3.6586803089488633 1.665555974786932 Q 3.640702681107954 1.647245427911932 3.6120716441761362 1.647245427911932 Q 3.5804443359375 1.647245427911932 3.5604691938920454 1.6688851651278411 Q 3.5384965376420454 1.6928553355823865 3.5384965376420454 1.727811834161932 Q 3.5384965376420454 1.7627683327414774 3.5461536754261362 1.7842416104403411 Q 3.553810813210227 1.8057148881392047 3.5662952769886362 1.823026677911932 Q 3.5787797407670454 1.8403384676846593 3.5947598544034087 1.8546539861505684 Q 3.6107399680397725 1.8689695046164774 3.6272194602272725 1.8829521040482957 Q 3.6436989524147725 1.8969347034801138 3.6596790660511362 1.9117496004971593 Q 3.6756591796875 1.9265644975142047 3.688310102982954 1.9445421253551138 Q 3.7159423828125 1.9851582475142047 3.7159423828125 2.038092373934659 Q 3.7159423828125 2.100015314275568 3.6839821555397725 2.136969327059659 Q 3.6523548473011362 2.173590420809659 3.5994207208806817 2.173590420809659 Q 3.550148703835227 2.173590420809659 3.5191872336647725 2.1356376509232957 Q 3.4898903586647725 2.100015314275568 3.4898903586647725 2.0554041637073865 Q 3.4898903586647725 2.010793013139205 3.5091996626420454 2.010793013139205 M 3.838955965909091 1.9808303000710228 L 3.8396218039772725 2.0990165571732957 Q 3.8396218039772725 2.114996670809659 3.8396218039772725 2.1263159179687503 Q 3.8399547230113633 2.1313097034801136 3.8399547230113633 2.1349718128551136 Q 3.9238503196022725 2.1349718128551136 3.951482599431818 2.1323084605823865 Q 3.9801136363636362 2.129312189275568 3.984774502840909 2.130643865411932 Q 3.9894353693181817 2.1319755415482957 3.992764559659091 2.1349718128551136 Q 3.999422940340909 2.1409643554687503 3.999422940340909 2.148122114701705 Q 3.999422940340909 2.155279873934659 3.9930974786931817 2.160440118963068 Q 3.9867720170454546 2.1656003639914774 3.9754527698863633 2.1649345259232957 Q 3.9208540482954546 2.1606065784801136 3.8769087357954546 2.1634363902698865 Q 3.8329634232954546 2.166266202059659 3.82763671875 2.1670984996448865 Q 3.8223100142045454 2.1679307972301136 3.818148526278409 2.1670984996448865 Q 3.8139870383522725 2.166266202059659 3.8106578480113633 2.163602849786932 Q 3.8030007102272725 2.1579432262073865 3.8036665482954546 2.1469568980823865 Q 3.808660333806818 2.0507432972301136 3.808660333806818 1.93405517578125 Q 3.808660333806818 1.8173670543323865 3.8088267933238633 1.7872378817471593 Q 3.808993252840909 1.757108709161932 3.808993252840909 1.7321397816051138 Q 3.808327414772727 1.6785398171164774 3.8066628196022725 1.656400701349432 Q 3.804998224431818 1.6342615855823865 3.8074951171875 1.6299336381392049 Q 3.8099920099431817 1.6256056906960228 3.8136541193181817 1.6236081764914774 Q 3.8186479048295454 1.6212777432528411 3.8263050426136362 1.6226094193892049 Q 3.8402876420454546 1.6249398526278411 3.863259055397727 1.6249398526278411 Q 3.907537286931818 1.6249398526278411 3.923683860085227 1.6231087979403411 Q 3.9398304332386362 1.6212777432528411 3.944491299715909 1.6227758789062503 Q 3.9491521661931817 1.6242740145596593 3.9521484375 1.6269373668323865 Q 3.958806818181818 1.6322640713778411 3.958806818181818 1.639921209161932 Q 3.958806818181818 1.6475783469460228 3.9528142755681817 1.6525721324573865 Q 3.9468217329545454 1.6575659179687503 3.936501242897727 1.6570665394176138 Q 3.926180752840909 1.6565671608664774 3.914528586647727 1.6557348632812503 Q 3.9028764204545454 1.6549025656960228 3.889559659090909 1.6542367276278411 Q 3.8615944602272725 1.6532379705255682 3.8409534801136362 1.6549025656960228 Q 3.8409534801136362 1.683866521661932 3.8406205610795454 1.7124975585937503 Q 3.8402876420454546 1.7464553000710228 3.8399547230113633 1.7814117986505684 Q 3.838955965909091 1.8752949662642047 3.838955965909091 1.9199061168323865 Q 3.8805708451704546 1.9199061168323865 3.900213068181818 1.9179086026278411 Q 3.9215198863636362 1.9155781693892047 3.9270130504261362 1.9199061168323865 Q 3.9325062144886362 1.9242340642755684 3.9325062144886362 1.9315582830255684 Q 3.9325062144886362 1.9498688299005684 3.8982155539772725 1.9492029918323865 Q 3.8912242542613633 1.9488700727982957 3.885564630681818 1.9488700727982957 L 3.8585981889204546 1.9485371537642047 L 3.838955965909091 1.9485371537642047 L 3.838955965909091 1.9808303000710228 M 4.244617808948863 2.0261072887073865 Q 4.244617808948863 2.0151209605823865 4.250110973011363 2.008961958451705 Q 4.255604137073863 2.002802956321023 4.2627618963068175 2.002802956321023 Q 4.2699196555397725 2.002802956321023 4.2754128196022725 2.007963201349432 Q 4.2809059836647725 2.013123446377841 4.280240145596591 2.0237768554687503 Q 4.276910955255682 2.0910265003551136 4.243951970880682 2.1319755415482957 Q 4.212324662642045 2.171259987571023 4.164717240767045 2.171259987571023 Q 4.0748291015625 2.171259987571023 4.0485284978693175 2.0367606977982957 Q 4.038540926846591 1.98715576171875 4.038540926846591 1.9197396573153411 Q 4.038540926846591 1.852323552911932 4.046863902698863 1.7995558860085228 Q 4.055186878551136 1.7467882191051138 4.0721657492897725 1.7078366921164774 Q 4.108453924005682 1.6246069335937503 4.175370649857954 1.6246069335937503 Q 4.227306019176136 1.6246069335937503 4.252274946732954 1.665555974786932 Q 4.278575550426136 1.7091683682528411 4.278575550426136 1.8080453213778411 Q 4.278575550426136 1.8190316495028411 4.2735817649147725 1.8245248135653411 Q 4.268587979403408 1.8300179776278411 4.2615966796875 1.8300179776278411 Q 4.2462824041193175 1.8300179776278411 4.2462824041193175 1.8107086736505684 Q 4.2462824041193175 1.687528631036932 4.206997958096591 1.6638913796164774 Q 4.1930153586647725 1.6555684037642049 4.174371892755682 1.6555684037642049 Q 4.155728426846591 1.6555684037642049 4.140913529829545 1.6660553533380684 Q 4.1260986328125 1.676542302911932 4.114612926136363 1.6950193093039774 Q 4.103127219460227 1.7134963156960228 4.094804243607954 1.7386317027698865 Q 4.086481267755682 1.7637670898437503 4.081154563210227 1.7927310458096593 Q 4.0705011541193175 1.8513247958096593 4.0705011541193175 1.90842041015625 Q 4.0705011541193175 1.9655160245028411 4.0741632634943175 1.99997314453125 Q 4.0778253728693175 2.034430264559659 4.084483753551136 2.058899813565341 Q 4.091142134232954 2.083369362571023 4.100297407670454 2.0988500976562503 Q 4.109452681107954 2.1143308327414774 4.120439009232954 2.123319646661932 Q 4.139082475142045 2.138966841264205 4.168046431107954 2.138966841264205 Q 4.2003395774147725 2.138966841264205 4.220980557528409 2.112666237571023 Q 4.245283647017045 2.0823706054687503 4.244617808948863 2.0261072887073865 M 4.373956853693182 1.9911507901278411 L 4.374622691761363 1.8503260387073865 Q 4.374622691761363 1.7304751864346593 4.3669655539772725 1.647245427911932 Q 4.365966796875 1.6365920188210228 4.372292258522727 1.6314317737926138 Q 4.378617720170454 1.6262715287642049 4.386774236505682 1.6262715287642049 Q 4.394930752840908 1.6262715287642049 4.401589133522727 1.6314317737926138 Q 4.408247514204545 1.6365920188210228 4.407581676136363 1.6540702681107957 Q 4.406915838068182 1.6715485174005684 4.406083540482954 1.6983484996448865 Q 4.405251242897727 1.7251484818892047 4.404585404829545 1.7551111949573865 Q 4.403253728693182 1.8150366210937503 4.403253728693182 1.8636428000710228 Q 4.403253728693182 1.9122489790482957 4.403420188210227 1.9300601473721593 Q 4.4035866477272725 1.9478713156960228 4.403919566761363 1.9645172674005684 Q 4.4055841619318175 2.0530737304687503 4.413907137784091 2.076710981889205 Q 4.422230113636363 2.100348233309659 4.433216441761363 2.1129991566051136 Q 4.455189098011363 2.138301003196023 4.4898126775568175 2.138301003196023 Q 4.525435014204545 2.138301003196023 4.548739346590908 2.112000399502841 Q 4.572709517045454 2.0847010387073865 4.576704545454545 2.035761940696023 Q 4.580366654829545 1.9758365145596593 4.580366654829545 1.93954833984375 Q 4.580366654829545 1.9032601651278411 4.5802001953125 1.8767931019176138 Q 4.580033735795454 1.8503260387073865 4.5793678977272725 1.8173670543323865 Q 4.576704545454545 1.7214863725142047 4.5740411931818175 1.6452479137073865 Q 4.573708274147727 1.6345945046164774 4.579700816761363 1.6296007191051138 Q 4.585693359375 1.6246069335937503 4.593350497159091 1.6246069335937503 Q 4.601007634943182 1.6246069335937503 4.607333096590908 1.6296007191051138 Q 4.613658558238636 1.6345945046164774 4.613325639204545 1.6452479137073865 Q 4.611993963068182 1.694852849786932 4.611827503551136 1.7431261097301138 Q 4.611661044034091 1.7913993696732957 4.611328125 1.8390067915482957 Q 4.6106622869318175 1.9545296963778411 4.6070001775568175 2.0049669300426136 Q 4.6033380681818175 2.0554041637073865 4.5958473899147725 2.0810389293323865 Q 4.588356711647727 2.1066736949573865 4.574374112215908 2.126648837002841 Q 4.543079723011363 2.171259987571023 4.490145596590908 2.171259987571023 Q 4.402587890625 2.171259987571023 4.380948153409091 2.074380548650568 Q 4.373956853693182 2.0440849165482957 4.373956853693182 2.0067979847301136 L 4.373956853693182 1.9911507901278411 M 4.752652254971591 2.0091284179687503 Q 4.755315607244318 2.0847010387073865 4.7569802024147725 2.140298517400568 Q 4.757313121448863 2.151617764559659 4.7513205788352275 2.157110928622159 Q 4.745328036221591 2.162604092684659 4.7385031960227275 2.162604092684659 Q 4.731678355823863 2.162604092684659 4.726518110795454 2.1574438476562503 Q 4.721357865767046 2.152283602627841 4.721357865767046 2.141963112571023 L 4.721357865767046 1.8916079989346593 Q 4.721357865767046 1.7617695756392047 4.715032404119318 1.6585646750710228 Q 4.714033647017046 1.6439162375710228 4.7230224609375 1.6382566139914774 Q 4.7266845703125 1.6359261807528411 4.730679598721591 1.6354268022017049 Q 4.734674627130682 1.6349274236505682 4.748324307528409 1.6309323952414774 Q 4.7826149680397725 1.6212777432528411 4.81640625 1.6212777432528411 Q 4.8501975319602275 1.6212777432528411 4.8723366477272725 1.6287684215198865 Q 4.894475763494318 1.636259099786932 4.910122958096591 1.6515733753551138 Q 4.943414861505682 1.6841994406960228 4.943414861505682 1.7477869762073865 Q 4.943414861505682 1.8296850585937503 4.878828568892046 1.9059235174005684 Q 4.8685080788352275 1.918241521661932 4.856855912642046 1.9302266068892047 Q 4.889481977982954 2.0301023171164774 4.933427290482954 2.133973055752841 Q 4.941417347301137 2.1519506835937503 4.9254372336647725 2.160273659446023 Q 4.921442205255682 2.162271173650568 4.9161155007102275 2.162271173650568 Q 4.904130415482954 2.162271173650568 4.899136629971591 2.148621493252841 Q 4.888483220880682 2.1176600230823865 4.879827325994318 2.0891954456676136 Q 4.871171431107954 2.060730868252841 4.862848455255682 2.0337644264914774 Q 4.848200017755682 1.9851582475142047 4.835216175426137 1.95053466796875 Q 4.798595081676137 1.9828278142755684 4.752652254971591 2.0091284179687503 M 4.751653497869318 1.9775011097301138 Q 4.804254705255682 1.94687255859375 4.8501975319602275 1.8942713512073865 Q 4.911787553267046 1.8226937588778411 4.911787553267046 1.7507832475142047 Q 4.911787553267046 1.6762093838778411 4.8595192649147725 1.654569646661932 Q 4.830888227982954 1.6425845614346593 4.786609996448863 1.6512404563210228 Q 4.765636097301137 1.6552354847301138 4.7523193359375 1.661893865411932 Q 4.747991388494318 1.7621024946732957 4.747991388494318 1.8300179776278411 Q 4.747991388494318 1.9022614080255684 4.748157848011363 1.9077545720880684 Q 4.748324307528409 1.9132477361505684 4.748490767045454 1.9177421431107957 Q 4.7486572265625 1.9222365500710228 4.748990145596591 1.9270638760653411 Q 4.749323064630682 1.9318912020596593 4.749822443181818 1.9408800159801138 Q 4.750321821732954 1.9498688299005684 4.750987659801137 1.9641843483664774 Q 4.7513205788352275 1.9701768909801138 4.751653497869318 1.9775011097301138 M 5.055775035511363 1.9808303000710228 L 5.056440873579546 2.0990165571732957 Q 5.056440873579546 2.114996670809659 5.056440873579546 2.1263159179687503 Q 5.056773792613637 2.1313097034801136 5.056773792613637 2.1349718128551136 Q 5.140669389204546 2.1349718128551136 5.168301669034091 2.1323084605823865 Q 5.196932705965909 2.129312189275568 5.201593572443182 2.130643865411932 Q 5.206254438920455 2.1319755415482957 5.209583629261363 2.1349718128551136 Q 5.216242009943182 2.1409643554687503 5.216242009943182 2.148122114701705 Q 5.216242009943182 2.155279873934659 5.209916548295455 2.160440118963068 Q 5.2035910866477275 2.1656003639914774 5.192271839488637 2.1649345259232957 Q 5.1376731178977275 2.1606065784801136 5.0937278053977275 2.1634363902698865 Q 5.0497824928977275 2.166266202059659 5.0444557883522725 2.1670984996448865 Q 5.039129083806818 2.1679307972301136 5.034967595880682 2.1670984996448865 Q 5.030806107954546 2.166266202059659 5.027476917613637 2.163602849786932 Q 5.019819779829546 2.1579432262073865 5.0204856178977275 2.1469568980823865 Q 5.025479403409091 2.0507432972301136 5.025479403409091 1.93405517578125 Q 5.025479403409091 1.8173670543323865 5.025645862926137 1.7872378817471593 Q 5.025812322443182 1.757108709161932 5.025812322443182 1.7321397816051138 Q 5.025146484375 1.6785398171164774 5.023481889204546 1.656400701349432 Q 5.021817294034091 1.6342615855823865 5.0243141867897725 1.6299336381392049 Q 5.026811079545455 1.6256056906960228 5.030473188920455 1.6236081764914774 Q 5.035466974431818 1.6212777432528411 5.043124112215909 1.6226094193892049 Q 5.0571067116477275 1.6249398526278411 5.080078125 1.6249398526278411 Q 5.124356356534091 1.6249398526278411 5.1405029296875 1.6231087979403411 Q 5.156649502840909 1.6212777432528411 5.161310369318182 1.6227758789062503 Q 5.165971235795455 1.6242740145596593 5.1689675071022725 1.6269373668323865 Q 5.175625887784091 1.6322640713778411 5.175625887784091 1.639921209161932 Q 5.175625887784091 1.6475783469460228 5.169633345170455 1.6525721324573865 Q 5.163640802556818 1.6575659179687503 5.1533203125 1.6570665394176138 Q 5.142999822443182 1.6565671608664774 5.13134765625 1.6557348632812503 Q 5.119695490056818 1.6549025656960228 5.106378728693182 1.6542367276278411 Q 5.078413529829546 1.6532379705255682 5.057772549715909 1.6549025656960228 Q 5.057772549715909 1.683866521661932 5.057439630681818 1.7124975585937503 Q 5.0571067116477275 1.7464553000710228 5.056773792613637 1.7814117986505684 Q 5.055775035511363 1.8752949662642047 5.055775035511363 1.9199061168323865 Q 5.0973899147727275 1.9199061168323865 5.117032137784091 1.9179086026278411 Q 5.138338955965909 1.9155781693892047 5.143832120028409 1.9199061168323865 Q 5.149325284090909 1.9242340642755684 5.149325284090909 1.9315582830255684 Q 5.149325284090909 1.9498688299005684 5.115034623579546 1.9492029918323865 Q 5.108043323863637 1.9488700727982957 5.102383700284091 1.9488700727982957 L 5.0754172585227275 1.9485371537642047 L 5.055775035511363 1.9485371537642047 L 5.055775035511363 1.9808303000710228" fill="#212121" fill-rule="nonzero"></path></g></g><defs><clipPath id="SvgjsClipPath61399"><path d=" M 5.622900390625 -1.1874043878892235 h 4.538411625565379 v 4.538411625565379 h -4.538411625565379 Z"></path></clipPath><clipPath id="SvgjsClipPath613974128fa5f-c61b-4c0a-9292-c521ea667946"><path d=" M 5.622900390625 -1.1874043878892235 L 10.16131201619038 -1.1874043878892235 L 10.16131201619038 3.3510072376761553 L 5.622900390625 3.3510072376761553 Z"></path></clipPath></defs></svg>